# AST/ASF file generated using VICON BodyLanguage
# -----------------------------------------------
:version 1.10
:name VICON
:units
  mass 1.0
  length 0.45
  angle deg
:documentation
   .ast/.asf automatically generated from VICON data using
   VICON BodyBuilder and BodyLanguage model FoxedUp or BRILLIANT.MOD
:root
   order TX TY TZ RX RY RZ
   axis XYZ
   position 0 0 0  
   orientation 0 0 0 
:bonedata
  begin
     id 1 
     name lhipjoint
     direction 0.62366 -0.717238 0.310833 
     length 2.53602 
     axis 0 0 0  XYZ
  end
  begin
     id 2 
     name lfemur
     direction 0.34202 -0.939693 0  
     length 7.40817  
     axis 0 0 20  XYZ
    dof rx ry rz
    limits (-160.0 20.0)
           (-70.0 70.0)
           (-60.0 70.0)
  end
  begin
     id 3 
     name ltibia
     direction 0.34202 -0.939693 0   
     length 7.7045   
     axis 0 0 20   XYZ
    dof rx
    limits (-10.0 170.0)
  end
  begin
     id 4 
     name lfoot
     direction 0.0673888 -0.185149 0.980397   
     length 2.09456   
     axis -90 7.62852e-016 20   XYZ
    dof rx rz
    limits (-45.0 90.0)
           (-70.0 20.0)
  end
  begin
     id 5 
     name ltoes
     direction 1.53575e-011 -4.21994e-011 1   
     length 1.05543   
     axis -90 7.62852e-016 20   XYZ
    dof rx
    limits (-90.0 20.0)
  end
  begin
     id 6 
     name rhipjoint
     direction -0.489018 -0.800347 0.346851   
     length 2.27268  
     axis 0 0 0  XYZ 
  end
  begin
     id 7 
     name rfemur
     direction -0.34202 -0.939693 0   
     length 7.55487   
     axis 0 0 -20   XYZ
    dof rx ry rz
    limits (-160.0 20.0)
           (-70.0 70.0)
           (-70.0 60.0)
  end
  begin
     id 8 
     name rtibia
     direction -0.34202 -0.939693 0   
     length 7.78969   
     axis 0 0 -20   XYZ
    dof rx
    limits (-10.0 170.0)
 end
 begin
     id 9 
     name rfoot
     direction -0.0859318 -0.236096 0.967923   
     length 2.19143  
     axis -90 -7.62852e-016 -20   XYZ
    dof rx rz
    limits (-45.0 90.0)
           (-20.0 70.0)
  end
  begin
     id 10 
     name rtoes
     direction -1.53538e-011 -4.21989e-011 1   
     length 1.09845   
     axis -90 -7.62852e-016 -20   XYZ
    dof rx
    limits (-90.0 20.0)
  end
  begin
     id 11 
     name lowerback
     direction -0.00762546 0.998978 -0.0445553   
     length 1.98161   
     axis 0 0 0   XYZ
    dof rx ry rz
    limits (-20.0 45.0)
           (-30.0 30.0)
           (-30.0 30.0)
  end
  begin
     id 12 
     name upperback
     direction 0.0422361 0.998867 -0.0219156   
     length 1.97558   
     axis 0 0 0   XYZ
    dof rx ry rz
    limits (-20.0 45.0)
           (-30.0 30.0)
           (-30.0 30.0)
  end
  begin
     id 13 
     name thorax
     direction 0.0442465 0.999021 7.47603e-005   
     length 1.97799   
     axis 0 0 0   XYZ
    dof rx ry rz
    limits (-20.0 45.0)
           (-30.0 30.0)
           (-30.0 30.0)
  end
  begin
     id 14 
     name lowerneck
     direction 0.00312169 0.984641 0.174564   
     length 1.78995   
     axis 0 0 0   XYZ
    dof rx ry rz
    limits (-20.0 45.0)
           (-30.0 30.0)
           (-30.0 30.0)
  end
  begin
     id 15 
     name upperneck
     direction -0.0383028 0.985255 -0.166749   
     length 1.83053   
     axis 0 0 0   XYZ
    dof rx ry rz
    limits (-20.0 45.0)
           (-30.0 30.0)
           (-30.0 30.0)
  end
  begin
     id 16
     name head
     direction -0.0129546 0.997059 -0.0755386  
     length 1.84088  
     axis 0 0 0   XYZ
    dof rx ry rz
    limits (-20.0 45.0)
           (-30.0 30.0)
           (-30.0 30.0)
  end
  begin
     id 17 
     name lclavicle
     direction 0.912857 0.370519 -0.171488  
     length 3.51279  
     axis 0 0 0   XYZ
    dof ry rz
    limits (-20.0 10.0)
           (0.0 20.0)
  end
  begin
     id 18 
     name lhumerus
     direction 1 -4.48962e-011 3.64361e-027   
     length 4.95663   
     axis 180 -30 -90   XYZ
    dof rx ry rz
    limits (-60.0 90.0)
           (-90.0 90.0)
           (-90.0 90.0)
  end
  begin
     id 19
     name lradius
     direction 1 -4.48974e-011 5.97202e-027   
     length 3.38177   
     axis 180 -30 -90   XYZ
    dof rx
    limits (-10.0 170.0)
  end
  begin
     id 20
     name lwrist
     direction 1 -4.4896e-011 9.83288e-027   
     length 1.69088   
     axis -9.31221e-015 90 90   XYZ
    dof ry
    limits (-180.0 0.0)
 end
  begin
     id 21 
     name lhand
     direction 1 -4.4902e-011 1.96551e-026   
     length 0.662909   
     axis -1.25475e-014 90 90   XYZ
    dof rx rz
    limits (-90.0 90.0)
           (-45.0 45.0)
  end
  begin
     id 22 
     name lfingers
     direction 1 -4.48971e-011 3.93277e-026   
     length 0.534454   
     axis -2.50945e-014 90 90   XYZ
    dof rx
    limits (0.0 90.0)
  end
  begin
     id 23
     name lthumb
     direction 0.707107 -6.34933e-011 0.707107   
     length 0.767373   
     axis -90 45 -4.80359e-014   XYZ
    dof rx rz
    limits (-45.0 45.0)
           (-45.0 45.0)
  end
  begin
     id 24 
     name rclavicle
     direction -0.900919 0.395364 -0.178976   
     length 3.40627  
     axis 0 0 0   XYZ 
    dof ry rz
    limits (-10.0 20.0)
           (-20.0 0.0)
  end
  begin
     id 25 
     name rhumerus
     direction -1 -4.48969e-011 1.03875e-027  
     length 5.08365   
     axis 180 30 90   XYZ
    dof rx ry rz
    limits (-90.0 60.0)
           (-90.0 90.0)
           (-90.0 90.0)
  end
  begin
     id 26 
     name rradius
     direction -1 -4.48951e-011 5.02733e-027   
     length 3.35984   
     axis 180 30 90   XYZ
    dof rx
    limits (-10.0 170.0)
  end
  begin
     id 27 
     name rwrist
     direction -1 -4.49011e-011 9.82828e-027   
     length 1.67992   
     axis -9.31221e-015 -90 -90   XYZ
    dof ry
    limits (-180.0 0.0)
  end
  begin
     id 28
     name rhand
     direction -1 -4.48894e-011 1.96774e-026   
     length 0.820764   
     axis -1.25475e-014 -90 -90   XYZ
    dof rx rz
    limits (-90.0 90.0)
           (-45.0 45.0)
  end
  begin
     id 29
     name rfingers
     direction -1 -4.49095e-011 3.92833e-026   
     length 0.661721   
     axis -2.50945e-014 -90 -90   XYZ
    dof rx
    limits (0.0 90.0)
  end
  begin
     id 30
     name rthumb
     direction -0.707107 -6.34881e-011 0.707107   
     length 0.950103   
     axis -90 -45 4.80359e-014   XYZ
    dof rx rz
    limits (-45.0 45.0)
           (-45.0 45.0)
  end
:hierarchy
  begin
    root lhipjoint rhipjoint lowerback
    lhipjoint lfemur
    lfemur ltibia
    ltibia lfoot
    lfoot ltoes
    rhipjoint rfemur
    rfemur rtibia
    rtibia rfoot
    rfoot rtoes
    lowerback upperback
    upperback thorax
    thorax lowerneck lclavicle rclavicle
    lowerneck upperneck
    upperneck head
    lclavicle lhumerus
    lhumerus lradius
    lradius lwrist
    lwrist lhand lthumb
    lhand lfingers
    rclavicle rhumerus
    rhumerus rradius
    rradius rwrist
    rwrist rhand rthumb
    rhand rfingers
  end

#!OML:ASF I:\golf\golf\golf 2\Subject 1\2002-09-07\Subject1.ASF
:FULLY-SPECIFIED
:DEGREES
133
root -7.41852 17.5324 2.27675 -3.79472 51.0175 -17.2226
lowerback 2.34719 -7.22699 -16.5473
upperback 2.32261 -9.67492 -1.74705
thorax 3.61707 -5.1428 6.94157
lowerneck -5.54033 18.7796 4.27207
upperneck 21.1065 28.6333 -11.2737
head 9.93951 12.7034 -1.11011
rclavicle -3.18055e-014 -3.18055e-015
rhumerus -10.6712 -6.81193 -91.3014
rradius 82.0618
rwrist -41.3588
rhand -63.968 18.674
rfingers 7.12502
rthumb -35.9206 -7.66195
lclavicle -3.18055e-014 -3.18055e-015
lhumerus 83.3946 -65.8798 31.6998
lradius 26.0519
lwrist 4.6362
lhand -3.13861 13.2659
lfingers 7.12502
lthumb -157.419 -138.035
rfemur -32.5552 8.87132 28.1893
rtibia 35.0819
rfoot -9.43833 20.8315
rtoes 20.9235
lfemur -6.7856 12.0817 4.06291
ltibia 25.8389
lfoot -11.2126 23.1872
ltoes -26.9447
134
root -7.41745 17.5522 2.3202 -3.4154 50.6558 -16.7751
lowerback 2.52848 -7.41 -16.9554
upperback 2.1662 -9.96863 -1.80041
thorax 3.48099 -5.27508 7.1049
lowerneck -5.16876 18.998 4.16342
upperneck 20.553 28.8833 -11.4847
head 9.71742 12.8486 -1.1849
rclavicle -6.75868e-014 5.40694e-014
rhumerus -10.0024 -7.44969 -90.678
rradius 83.3016
rwrist -39.5842
rhand -64.3974 19.7183
rfingers 7.12502
rthumb -36.3273 -6.51713
lclavicle -6.75868e-014 5.40694e-014
lhumerus 83.7142 -65.3115 32.7251
lradius 26.0494
lwrist 3.48619
lhand -4.34571 12.4079
lfingers 7.12502
lthumb -158.578 -138.756
rfemur -32.4667 8.77712 28.1803
rtibia 35.1463
rfoot -9.32891 21.2539
rtoes 21.6917
lfemur -6.28728 12.0506 3.97732
ltibia 25.8615
lfoot -13.1199 22.3647
ltoes -21.3254
135
root -7.41621 17.5568 2.35851 -3.3242 50.2766 -16.6501
lowerback 2.73452 -7.57909 -17.0635
upperback 2.0987 -10.2421 -1.79747
thorax 3.38082 -5.40128 7.1716
lowerneck -5.0519 19.2155 3.79824
upperneck 19.9766 29.1222 -11.6035
head 9.47933 12.97 -1.18549
rclavicle 1.74931e-014 -1.90833e-014
rhumerus -9.05503 -8.07804 -90.0281
rradius 84.41
rwrist -37.7559
rhand -64.8481 20.6204
rfingers 7.12502
rthumb -36.7539 -5.50727
lclavicle 1.74931e-014 -1.90833e-014
lhumerus 84.3429 -64.5649 33.3567
lradius 26.2749
lwrist 2.50238
lhand -5.43443 11.7399
lfingers 7.12502
lthumb -159.624 -139.309
rfemur -32.3977 8.80199 28.3404
rtibia 35.2838
rfoot -9.20506 21.6762
rtoes 22.4521
lfemur -5.77321 12.1112 4.10899
ltibia 25.7985
lfoot -14.6018 21.6279
ltoes -15.9658
136
root -7.41695 17.5456 2.39272 -3.22252 49.9287 -16.6288
lowerback 2.86774 -7.80246 -17.0767
upperback 2.05653 -10.5689 -1.79441
thorax 3.34592 -5.55782 7.17067
lowerneck -5.09337 19.4777 3.47297
upperneck 19.4262 29.4212 -11.7105
head 9.28837 13.1119 -1.16
rclavicle 4.53229e-014 2.8625e-014
rhumerus -8.12611 -8.60566 -89.5605
rradius 85.6076
rwrist -36.086
rhand -65.1577 23.1701
rfingers 7.12502
rthumb -37.0468 -2.88224
lclavicle 4.53229e-014 2.8625e-014
lhumerus 85.7404 -63.653 33.0392
lradius 26.485
lwrist 1.96383
lhand -6.72565 10.8804
lfingers 7.12502
lthumb -160.865 -140.041
rfemur -32.4497 8.94944 28.5129
rtibia 35.3668
rfoot -9.17467 21.9048
rtoes 22.5613
lfemur -5.39511 12.0395 4.31026
ltibia 25.8462
lfoot -16.0426 20.8532
ltoes -11.6748
137
root -7.41662 17.5465 2.43167 -2.83132 49.6047 -16.3209
lowerback 2.90785 -8.05306 -17.2981
upperback 1.9714 -10.9158 -1.86566
thorax 3.34715 -5.72417 7.18361
lowerneck -5.06349 19.7369 3.37535
upperneck 18.9044 29.7196 -11.891
head 9.14221 13.2629 -1.18274
rclavicle 5.28767e-014 3.81667e-014
rhumerus -7.2889 -9.09951 -89.2085
rradius 86.8904
rwrist -34.326
rhand -65.7072 25.8068
rfingers 7.12502
rthumb -37.5663 -0.109148
lclavicle 5.28767e-014 3.81667e-014
lhumerus 87.7104 -62.7256 31.9038
lradius 26.8435
lwrist 1.72032
lhand -8.28736 10.2301
lfingers 7.12502
lthumb -162.368 -140.549
rfemur -32.6079 9.07074 28.4958
rtibia 35.5546
rfoot -9.46237 22.0972
rtoes 21.6539
lfemur -5.25332 12.1406 4.23501
ltibia 25.7622
lfoot -15.8797 20.9607
ltoes -12.1402
138
root -7.4159 17.5546 2.4721 -2.47033 49.2014 -15.9925
lowerback 2.9685 -8.25179 -17.5478
upperback 1.87033 -11.2016 -1.92371
thorax 3.31314 -5.85789 7.23548
lowerneck -5.05725 19.9581 3.19486
upperneck 18.4673 29.9668 -11.9781
head 8.9977 13.3886 -1.17477
rclavicle 1.61811e-013 6.04305e-014
rhumerus -6.43886 -9.50563 -88.82
rradius 88.1208
rwrist -32.6361
rhand -65.849 27.7112
rfingers 7.12502
rthumb -37.7003 1.83105
lclavicle 1.61811e-013 6.04305e-014
lhumerus 89.281 -61.8445 31.1739
lradius 27.2663
lwrist 1.46574
lhand -9.90809 9.6604
lfingers 7.12502
lthumb -163.928 -140.986
rfemur -32.6873 9.20367 28.4958
rtibia 35.7463
rfoot -9.69299 22.4039
rtoes 20.9439
lfemur -5.22598 12.3915 4.12424
ltibia 25.6838
lfoot -14.4821 21.826
ltoes -16.2072
139
root -7.41717 17.5368 2.50515 -2.24319 48.7664 -15.8188
lowerback 3.04346 -8.41624 -17.6558
upperback 1.77892 -11.4447 -1.95381
thorax 3.24896 -5.96785 7.2519
lowerneck -5.0152 20.1455 2.93055
upperneck 17.9887 30.1523 -12.0277
head 8.80895 13.492 -1.16597
rclavicle -5.08889e-014 -3.81667e-014
rhumerus -5.56324 -9.77165 -88.3839
rradius 89.3207
rwrist -31.4447
rhand -65.261 26.5779
rfingers 7.12502
rthumb -37.1445 0.550926
lclavicle -5.08889e-014 -3.81667e-014
lhumerus 89.4103 -61.1194 32.2384
lradius 27.4874
lwrist 0.654913
lhand -10.8483 8.80563
lfingers 7.12502
lthumb -164.833 -141.77
rfemur -32.8049 9.41102 28.5655
rtibia 35.9529
rfoot -9.39766 22.7468
rtoes 22.2607
lfemur -5.01485 12.2884 4.20549
ltibia 25.6009
lfoot -14.4921 22.0327
ltoes -16.119
140
root -7.4185 17.53 2.53529 -1.82666 48.4126 -15.4559
lowerback 3.09891 -8.5647 -17.7645
upperback 1.65554 -11.6634 -2.05306
thorax 3.13979 -6.05763 7.19998
lowerneck -4.86649 20.2638 2.78524
upperneck 17.5055 30.2446 -12.1501
head 8.624 13.5603 -1.21347
rclavicle -3.57812e-014 1.59028e-014
rhumerus -4.74445 -10.1718 -87.9451
rradius 90.574
rwrist -30.2716
rhand -65.8244 35.3858
rfingers 7.12502
rthumb -37.6771 9.49947
lclavicle -3.57812e-014 1.59028e-014
lhumerus 89.1761 -60.555 33.8506
lradius 27.636
lwrist -0.415865
lhand -11.4433 7.87142
lfingers 7.12502
lthumb -165.407 -142.662
rfemur -32.9735 9.58552 28.4568
rtibia 36.1412
rfoot -9.10362 23.0416
rtoes 23.6587
lfemur -4.88464 12.569 4.0829
ltibia 25.5546
lfoot -13.9569 22.1851
ltoes -18.0682
141
root -7.41887 17.5268 2.56528 -1.30395 48.1138 -14.9121
lowerback 3.21428 -8.71403 -17.9835
upperback 1.48681 -11.9017 -2.18653
thorax 2.96745 -6.14953 7.18061
lowerneck -4.62462 20.3646 2.7164
upperneck 17.0716 30.3234 -12.3031
head 8.45698 13.6258 -1.28608
rclavicle 7.15625e-014 3.18055e-015
rhumerus -3.93543 -10.6833 -87.486
rradius 91.8189
rwrist -28.983
rhand -65.2432 32.4933
rfingers 7.12502
rthumb -37.1277 6.46199
lclavicle 7.15625e-014 3.18055e-015
lhumerus 89.5657 -59.9718 34.6398
lradius 27.8102
lwrist -1.32687
lhand -12.3643 6.96492
lfingers 7.12502
lthumb -166.294 -143.506
rfemur -33.1248 9.71536 28.2028
rtibia 36.3365
rfoot -9.02612 23.3038
rtoes 24.1609
lfemur -4.80651 12.7103 3.80757
ltibia 25.5809
lfoot -13.9913 22.1874
ltoes -17.8209
142
root -7.41737 17.5206 2.59717 -0.953445 47.7798 -14.5101
lowerback 3.33468 -8.89779 -18.1635
upperback 1.37138 -12.1822 -2.28218
thorax 2.86226 -6.2709 7.1707
lowerneck -4.50538 20.5196 2.61239
upperneck 16.6423 30.4878 -12.4747
head 8.31841 13.7197 -1.33416
rclavicle -8.42847e-014 -3.49861e-014
rhumerus -2.8652 -11.0099 -87.0065
rradius 92.828
rwrist -27.8228
rhand -64.8741 34.5207
rfingers 7.12502
rthumb -36.7785 8.39928
lclavicle -8.42847e-014 -3.49861e-014
lhumerus 90.3855 -59.1703 34.7923
lradius 27.9332
lwrist -2.0927
lhand -13.3573 6.25456
lfingers 7.12502
lthumb -167.251 -144.155
rfemur -33.1755 9.87206 28.0678
rtibia 36.5142
rfoot -8.98374 23.569
rtoes 24.6373
lfemur -4.66329 12.9002 3.66324
ltibia 25.6883
lfoot -14.0498 22.1224
ltoes -17.5814
143
root -7.4165 17.5215 2.62808 -0.69299 47.4139 -14.2235
lowerback 3.41442 -9.06891 -18.2249
upperback 1.3159 -12.4286 -2.38333
thorax 2.81039 -6.38145 7.08669
lowerneck -4.61985 20.6834 2.42397
upperneck 16.2632 30.6552 -12.517
head 8.20164 13.805 -1.31187
rclavicle -3.04141e-014 -6.36111e-015
rhumerus -1.71237 -11.2722 -86.5651
rradius 93.6946
rwrist -26.4583
rhand -64.7799 37.4833
rfingers 7.12502
rthumb -36.6894 11.3391
lclavicle -3.04141e-014 -6.36111e-015
lhumerus 91.3084 -58.3233 34.8686
lradius 28.1091
lwrist -2.68606
lhand -14.1314 5.81515
lfingers 7.12502
lthumb -167.998 -144.549
rfemur -33.1994 10.0942 28.0116
rtibia 36.6913
rfoot -9.05979 23.7334
rtoes 25.1992
lfemur -4.15198 13.4131 3.59152
ltibia 25.7617
lfoot -15.186 21.0887
ltoes -13.6153
144
root -7.41678 17.5155 2.65712 -0.468313 47.0342 -14.0053
lowerback 3.47457 -9.21321 -18.2553
upperback 1.25377 -12.6368 -2.46447
thorax 2.74975 -6.47266 7.01069
lowerneck -4.68712 20.8112 2.2348
upperneck 15.8829 30.7643 -12.5318
head 8.06708 13.8697 -1.29691
rclavicle -5.725e-014 6.36111e-015
rhumerus -0.764522 -11.552 -86.1367
rradius 94.7051
rwrist -24.7844
rhand -64.9599 39.3253
rfingers 7.12502
rthumb -36.8597 13.2247
lclavicle -5.725e-014 6.36111e-015
lhumerus 92.2996 -57.4979 34.8951
lradius 28.4064
lwrist -2.8559
lhand -14.6599 5.22784
lfingers 7.12502
lthumb -168.507 -145.107
rfemur -33.2548 10.371 27.9832
rtibia 36.8613
rfoot -9.15513 23.8533
rtoes 25.3307
lfemur -3.84105 13.7344 3.53679
ltibia 25.7736
lfoot -15.0248 21.009
ltoes -14.092
145
root -7.41628 17.5086 2.685 -0.241854 46.6544 -13.8113
lowerback 3.52743 -9.38371 -18.2964
upperback 1.16024 -12.884 -2.49688
thorax 2.68216 -6.58248 6.98801
lowerneck -4.73899 20.9481 2.05652
upperneck 15.5521 30.9184 -12.6389
head 7.96873 13.9451 -1.30014
rclavicle 1.1281e-013 -3.18055e-015
rhumerus 0.276659 -11.7178 -85.7334
rradius 95.6784
rwrist -23.0087
rhand -64.9799 39.1484
rfingers 7.12502
rthumb -36.8786 13.0527
lclavicle 1.1281e-013 -3.18055e-015
lhumerus 93.1212 -56.6055 35.0535
lradius 28.6518
lwrist -2.98866
lhand -15.0578 4.22771
lfingers 7.12502
lthumb -168.891 -146.086
rfemur -33.3461 10.6426 27.9572
rtibia 37.0365
rfoot -9.22696 24.0782
rtoes 24.1541
lfemur -3.75413 13.588 3.51406
ltibia 25.7626
lfoot -15.0277 21.3236
ltoes -13.8178
